<?xml version="1.0" encoding="UTF-8" standalone="no"?>
<!-- Created with Inkscape (http://www.inkscape.org/) -->
<svg version="1.1" xmlns="http://www.w3.org/2000/svg" xmlns:svg="http://www.w3.org/2000/svg" xmlns:xlink="http://www.w3.org/1999/xlink" x="0" y="0" width="105.21199238" height="73.33811678" viewBox="0 0 192.756 192.756" xml:space="preserve">
	<g transform="translate(6.321642,-29.70429)" opacity="1">
		<g transform="matrix(1.450198,0,0,1.450198,-48.94954,-13.92674)">
			<path d="M 19.177,81.142 C 19.177,53.706 53.89,31.454 96.666,31.454 C 139.494,31.454 174.207,53.706 174.207,81.142 C 174.207,108.576 139.494,130.828 96.666,130.828 C 53.89,130.828 19.177,108.576 19.177,81.142 z M 136.563,117.896 C 133.421,114.65 129.547,111.666 124.887,108.943 C 123.368,108.052 121.065,107.005 119.284,106.379 C 136.196,100.149 147.296,89.467 147.296,77.267 C 147.296,57.947 119.233,42.24 84.624,42.24 L 62.634,42.24 C 40.068,49.675 24.727,64.335 24.727,81.142 C 24.727,93.236 32.685,104.232 45.565,112.189 L 87.922,112.242 C 93.262,112.242 97.189,112.66 99.65,113.551 C 102.111,114.389 104.466,115.959 106.666,118.317 C 107.766,119.467 109.389,121.51 111.431,124.337 C 120.593,123.186 129.075,120.934 136.563,117.896 z M 51.063,63.288 L 52.686,61.664 C 52.791,61.56 52.948,61.507 53.105,61.507 L 89.755,61.507 C 90.069,61.507 90.383,61.769 90.383,62.083 L 90.383,62.292 C 109.023,63.443 123.317,69.779 123.317,77.475 C 123.317,85.172 109.023,91.507 90.383,92.659 L 90.383,92.816 C 90.383,93.13 90.069,93.392 89.755,93.392 L 53.105,93.392 C 52.948,93.392 52.791,93.34 52.686,93.235 L 51.063,91.612 L 48.34,91.612 L 48.34,92.816 C 48.287,93.13 48.026,93.392 47.712,93.392 L 45.932,93.392 C 45.618,93.392 45.356,93.13 45.304,92.816 L 45.304,62.084 C 45.356,61.77 45.618,61.508 45.932,61.508 L 47.712,61.508 C 48.026,61.508 48.288,61.77 48.34,62.084 L 48.34,63.288 L 51.063,63.288 L 51.063,63.288 z" fill="#FFFFFF"/>
			<path d="M 110.331,147.531 L 121.692,147.531 C 122.006,147.531 122.268,147.74 122.216,147.949 L 121.535,151.668 C 121.535,151.93 121.221,152.086 120.854,152.086 L 109.544,152.086 C 109.335,152.086 109.178,152.191 109.178,152.348 L 108.445,156.485 C 108.445,156.589 108.549,156.694 108.707,156.694 L 125.828,156.694 C 126.142,156.694 126.404,156.903 126.351,157.165 L 125.67,160.831 C 125.67,161.093 125.357,161.302 124.989,161.302 L 102.056,161.302 C 101.742,161.302 101.48,161.093 101.533,160.831 L 105.408,138.788 C 105.46,138.526 105.774,138.317 106.14,138.317 L 129.073,138.317 C 129.387,138.317 129.649,138.526 129.596,138.788 L 128.915,142.454 C 128.915,142.716 128.601,142.925 128.234,142.925 L 111.114,142.925 C 110.957,142.925 110.8,143.03 110.8,143.134 L 110.067,147.271 C 110.018,147.426 110.174,147.531 110.331,147.531 z" fill="#FFFFFF"/>
			<path d="M 45.094,147.531 L 56.456,147.531 C 56.77,147.531 57.032,147.74 56.979,147.949 L 56.298,151.668 C 56.298,151.93 55.984,152.086 55.617,152.086 L 44.309,152.086 C 44.1,152.086 43.942,152.191 43.942,152.348 L 43.209,156.485 C 43.209,156.589 43.314,156.694 43.471,156.694 L 60.592,156.694 C 60.906,156.694 61.168,156.903 61.115,157.165 L 60.487,160.831 C 60.435,161.093 60.12,161.302 59.754,161.302 L 36.821,161.302 C 36.507,161.302 36.245,161.093 36.298,160.831 L 40.225,138.788 C 40.225,138.526 40.539,138.317 40.906,138.317 L 63.839,138.317 C 64.153,138.317 64.415,138.526 64.362,138.788 L 63.734,142.454 C 63.682,142.716 63.368,142.925 63.001,142.925 L 45.932,142.925 C 45.723,142.925 45.565,143.03 45.565,143.134 L 44.832,147.271 C 44.832,147.426 44.937,147.531 45.094,147.531 z" fill="#FFFFFF"/>
			<path d="M 74.1,138.473 L 83.262,146.379 C 83.315,146.432 83.367,146.484 83.471,146.484 C 83.576,146.484 83.68,146.431 83.733,146.379 L 95.723,138.473 C 95.828,138.369 95.985,138.317 96.142,138.317 L 99.65,138.317 C 99.964,138.317 100.226,138.526 100.173,138.788 L 96.246,160.831 C 96.246,161.093 95.932,161.302 95.565,161.302 L 90.644,161.302 C 90.33,161.302 90.068,161.093 90.121,160.831 L 92.634,146.747 C 92.634,146.589 92.529,146.485 92.372,146.485 C 92.268,146.485 92.215,146.538 92.163,146.538 L 82.791,152.716 C 82.686,152.821 82.529,152.872 82.372,152.872 C 82.163,152.872 82.058,152.821 81.954,152.716 L 74.781,146.538 C 74.728,146.538 74.676,146.485 74.572,146.485 C 74.415,146.485 74.258,146.589 74.258,146.747 L 71.745,160.831 C 71.693,161.093 71.379,161.302 71.064,161.302 L 66.143,161.302 C 65.829,161.302 65.567,161.093 65.619,160.831 L 69.494,138.788 C 69.546,138.526 69.86,138.317 70.227,138.317 L 73.683,138.317 C 73.838,138.316 73.995,138.369 74.1,138.473 z" fill="#FFFFFF"/>
			<path d="M 140.437,142.924 C 140.281,142.924 140.124,143.029 140.124,143.133 L 139.33983,147.57707 L 137.768,156.485 C 137.715,156.589 137.872,156.694 138.03,156.694 L 148.135,156.694 C 149.81,156.694 151.381,155.7 151.59,154.391 L 153.213,145.227 C 153.423,143.918 152.271,142.924 150.543,142.924 L 140.437,142.924 L 140.437,142.924 z M 131.379,161.301 C 131.066,161.301 130.803,161.092 130.856,160.83 L 134.73,138.787 C 134.783,138.525 135.097,138.316 135.411,138.316 L 151.381,138.316 C 156.459,138.316 160.02,141.406 159.339,145.226 L 157.716,154.39 C 157.088,158.212 152.375,161.3 147.297,161.3 L 131.379,161.3 L 131.379,161.301 z" fill="#FFFFFF"/>
			<path d="M 178.082,152.086 C 177.925,152.086 177.768,152.191 177.716,152.348 L 176.25,160.83 C 176.197,161.092 175.883,161.301 175.517,161.301 L 170.648,161.301 C 170.281,161.301 170.072,161.092 170.072,160.83 L 171.591,152.348 C 171.591,152.192 171.486,152.086 171.329,152.086 L 171.015,152.086 C 165.937,152.086 162.376,149.049 163.057,145.227 L 164.157,138.788 C 164.209,138.526 164.523,138.317 164.889,138.317 L 169.758,138.317 C 170.125,138.317 170.334,138.526 170.281,138.788 L 169.181,145.227 C 168.972,146.485 170.124,147.532 171.852,147.532 L 179.182,147.532 C 180.858,147.532 182.428,146.485 182.637,145.227 L 183.789,138.788 C 183.842,138.526 184.155,138.317 184.47,138.317 L 189.392,138.317 C 189.705,138.317 189.967,138.526 189.915,138.788 L 188.815,145.227 C 188.134,149.049 183.474,152.086 178.395,152.086 L 178.082,152.086 z" fill="#FFFFFF"/>
			<path d="M 24.779,142.924 L 11.952,142.924 C 11.795,142.924 11.638,143.029 11.585,143.133 L 10.852,147.27 C 10.852,147.426 10.957,147.532 11.114,147.532 L 23.942,147.532 C 25.617,147.532 27.188,146.485 27.398,145.227 C 27.659,143.918 26.455,142.924 24.779,142.924 z M 32.423,154.391 L 31.271,160.83 C 31.219,161.092 30.905,161.301 30.59,161.301 L 25.669,161.301 C 25.355,161.301 25.093,161.092 25.145,160.83 L 26.297,154.391 C 26.506,153.133 25.302,152.086 23.627,152.086 L 10.8,152.086 C 10.643,152.086 10.486,152.191 10.486,152.348 L 8.968,160.83 C 8.915,161.092 8.601,161.301 8.287,161.301 L 3.365,161.301 C 3.051,161.301 2.789,161.092 2.842,160.83 L 6.717,138.787 C 6.769,138.525 7.083,138.316 7.398,138.316 L 26.037,138.316 C 31.116,138.316 34.728,141.406 34.048,145.226 C 33.734,146.955 32.582,148.578 30.907,149.833 C 32.109,151.039 32.737,152.662 32.423,154.391 z" fill="#FFFFFF"/>
		</g>
	</g>
</svg>